<svg width="69px" height="69px" viewBox="0 0 69 69" version="1.1" xmlns="http://www.w3.org/2000/svg" xmlns:xlink="http://www.w3.org/1999/xlink">
    <defs></defs>
    <g id="Page-1" stroke="none" stroke-width="1" fill="none" fill-rule="evenodd">
        <g id="Group-8">
            <path d="M34.5,0 C53.5537527,0 69,15.4462473 69,34.5 C69,53.5537527 53.5537527,69 34.5,69 C15.4462473,69 -2.84217094e-14,53.5537527 -2.84217094e-14,34.5 C-2.84217094e-14,15.4462473 15.4462473,0 34.5,0" id="Fill-1-Copy-3" fill="#222222"></path>
            <g id="Group-6" transform="translate(17.000000, 17.000000)" fill="#FFFFFF">
                <path d="M19,1.5 C19,3.5 16,3.5 16,1.5 C16,-0.5 19,-0.5 19,1.5" id="Fill-2"></path>
                <path d="M17.5008834,36 C7.85140466,36 0,28.0691156 0,18.3224541 C0,15.1590699 0.837310856,12.0545666 2.42272732,9.34356043 C2.66053978,8.93619281 3.17911894,8.80041505 3.58041955,9.04348291 C3.98172862,9.28488562 4.1138382,9.81129376 3.87603419,10.2186528 C2.44586171,12.6628499 1.69111892,15.4659969 1.69111892,18.3207717 C1.69111892,27.121993 8.78236966,34.2816757 17.5008918,34.2816757 C26.2173002,34.2833537 33.3089737,27.1215638 33.3089737,18.3207717 C33.3089737,11.070107 28.4652093,4.72153739 21.529118,2.88086849 C21.3623195,2.83728296 21.1938679,2.79537116 21.0254206,2.75681539 L20.7562296,2.69814058 C20.2987841,2.60091001 20.0064756,2.14830029 20.1005859,1.68390584 C20.1963704,1.2195543 20.6405999,0.921159083 21.0997365,1.01836391 C21.1988271,1.04015667 21.2979135,1.06194944 21.3953511,1.0837422 C21.5852713,1.12732773 21.7718854,1.1742693 21.9551934,1.22288458 C29.636219,3.2597227 35,10.2923311 35,18.3223511 C35,28.0690126 27.1507088,35.9998966 17.5008073,35.9998966 L17.5008834,36 Z" id="Fill-3"></path>
            </g>
        </g>
    </g>
</svg>