
<svg width="174px" height="174px" viewBox="0 0 174 174" version="1.1" xmlns="http://www.w3.org/2000/svg" xmlns:xlink="http://www.w3.org/1999/xlink">
    <defs>
        <polygon id="path-1" points="0 0 174 0 174 173.999969 0 173.999969"></polygon>
    </defs>
    <g id="Page-1" stroke="none" stroke-width="1" fill="none" fill-rule="evenodd">
        <g id="SiD-Logo">
            <g id="Group-3">
                <mask id="mask-2" fill="white">
                    <use xlink:href="#path-1"></use>
                </mask>
                <g id="Clip-2"></g>
                <path d="M87,-3.07420495e-05 C135.048594,-3.07420495e-05 174,38.9513756 174,86.9999693 C174,135.048563 135.048594,173.999969 87,173.999969 C38.9514064,173.999969 0,135.048563 0,86.9999693 C0,38.9513756 38.9514064,-3.07420495e-05 87,-3.07420495e-05" id="Fill-1" fill="#222222" mask="url(#mask-2)"></path>
            </g>
            <path d="M52.9365351,78.8227209 L52.9365351,84.7085016 C47.0953195,84.7085016 42.3967779,79.9744203 42.3967779,74.0886396 C42.3967779,68.2028588 47.0953195,63.46847 52.9365351,63.46847 C58.7777507,63.46847 63.4759871,68.2028588 63.4759871,74.0886396 C63.4759871,76.6475276 65.6350156,78.8227209 68.1745286,78.8227209 C70.7143467,78.8227209 72.872765,76.6475276 72.872765,74.0886396 C72.872765,63.0847752 63.9840117,54 52.9365351,54 C41.8887533,54 33,62.9565695 33,74.0886396 C33,85.2204022 41.8887533,94.1769717 52.9365351,94.1769717 L52.9365351,88.2911909 C58.7777507,88.2911909 63.4759871,93.0255797 63.4759871,98.9113604 C63.4759871,104.797141 58.7777507,109.531223 52.9365351,109.531223 C47.0953195,109.531223 42.3967779,104.797141 42.3967779,98.9113604 C42.3967779,98.7834621 42.3967779,98.9113604 42.3967779,98.9113604 C42.3967779,96.3521649 40.2380546,94.1769717 37.6985415,94.1769717 C35.1587234,94.1769717 33,96.3521649 33,98.9113604 C33,109.915225 41.8887533,119 52.9365351,119 C63.3490572,119 71.8570208,110.938719 72.872765,100.702551 C72.872765,100.062752 73,99.4229536 73,98.7834621 C72.872765,87.9074961 63.9840117,78.8227209 52.9365351,78.8227209" id="Fill-8" fill="#FFFFFF"></path>
            <path d="M121.000153,109.550124 L110.426763,109.550124 L110.426763,63.4498758 L121.000153,63.4498758 C126.860008,63.4498758 131.573237,68.1749672 131.573237,74.0491895 L131.573237,98.8231634 C131.573237,104.825033 126.860008,109.42217 121.000153,109.550124 Z M141,74.0491895 C141,63.0669345 132.082882,54 121.000153,54 L105.713535,54 C103.165612,54 101,56.1709216 101,58.7247845 L101,114.274909 C101,116.829078 103.165612,119 105.713535,119 L121.000153,119 C131.955548,119 141,110.061019 141,98.9508105 L141,74.0491895 Z" id="Fill-10" fill="#FFFFFF"></path>
            <path d="M88,69 C85.2970516,69 83,71.1469002 83,73.6725044 L83,113.327192 C83,115.852796 85.2970516,118 88,118 C90.7029484,118 93,115.852796 93,113.327192 L93,73.6725044 C93,71.1469002 90.8380309,69 88,69" id="Fill-12" fill="#FFFFFF"></path>
            <path d="M88,54 C90.7613976,54 93,56.2385297 93,58.9998376 C93,61.7614703 90.7613976,64 88,64 C85.2386024,64 83,61.7614703 83,58.9998376 C83,56.2385297 85.2386024,54 88,54" id="Fill-14" fill="#FFFFFF"></path>
        </g>
    </g>
</svg>